<svg xmlns="http://www.w3.org/2000/svg" width="500" height="500" xml:space="preserve"><path opacity=".12" d="M18 162h15v-11.5l-15 2.7zm33-14.8-15 2.9V162h15z"/><path fill="#ED6000" d="m16 153.6-16 2.9v5.5h16z"/><path opacity=".12" d="M53 146.9V162h17v-18z"/><path fill="#EF7D00" d="M90 162h15v-11.5l-15 2.7z"/><path opacity=".12" d="m124 147.2-17 2.9V162h17z"/><path fill="#ED6000" d="m88 153.6-16 2.9v5.5h16z"/><path opacity=".12" d="M126 146.9V162h15v-18z"/><g><path fill="#EF7D00" d="M162 162h16v-11.5l-16 2.7z"/><path fill="#F4A300" d="m195 147.2-15 2.9V162h15z"/><path fill="#ED6000" d="m160 153.6-16 2.9v5.5h16z"/><path opacity=".12" d="M198 146.9V162h16v-18z"/></g><g><path fill="#EF7D00" d="M235 162h15v-11.5l-15 2.7z"/><path fill="#F4A300" d="m268 147.2-16 2.9V162h16z"/><path fill="#ED6000" d="m233 153.6-17 2.9v5.5h17z"/><path fill="#FFCF36" d="M270 146.9V162h16v-18z"/></g></svg>