<svg xmlns="http://www.w3.org/2000/svg" version="1.0" width="128" height="128"><g style="stroke:#005c94;stroke-width:.96235621;stroke-opacity:1;display:inline"><path d="m823 384-10 10v18l10 10zm-14.625 10c-4.063 0-4.375 1.55-4.375 6.187v4.822c0 4.638.412 6.991 4.375 6.991H811v-18z" style="fill:#005c94;fill-opacity:1;stroke:#005c94;stroke-width:.96235621;stroke-opacity:1;display:inline" transform="translate(-963.868 -430.86) scale(1.23097)"/><path style="color:#000;fill:none;stroke:#005c94;stroke-width:4.66523743;stroke-linecap:butt;stroke-linejoin:round;stroke-miterlimit:4;stroke-opacity:1;stroke-dasharray:none;stroke-dashoffset:0;marker:none;visibility:visible;display:inline;overflow:visible;enable-background:accumulate" d="M62.041 19.959c13.83 13.83 13.83 36.252 0 50.082" transform="translate(2.866 7.347) scale(1.2861)"/><path transform="matrix(.869 0 0 .869 18.3 26.118)" d="M62.041 19.959c13.83 13.83 13.83 36.252 0 50.082" style="color:#000;fill:none;stroke:#005c94;stroke-width:6.90455294;stroke-linecap:butt;stroke-linejoin:round;stroke-miterlimit:4;stroke-opacity:1;stroke-dasharray:none;stroke-dashoffset:0;marker:none;visibility:visible;display:inline;overflow:visible;enable-background:accumulate"/><path style="color:#000;fill:none;stroke:#005c94;stroke-width:13.27799129;stroke-linecap:butt;stroke-linejoin:round;stroke-miterlimit:4;stroke-opacity:1;stroke-dasharray:none;stroke-dashoffset:0;marker:none;visibility:visible;display:inline;overflow:visible;enable-background:accumulate" d="M62.041 19.959c13.83 13.83 13.83 36.252 0 50.082" transform="translate(33.733 44.888) scale(.45188)"/></g><path style="fill:#005c94;fill-opacity:0;fill-rule:nonzero;stroke:#005c94;stroke-width:8.11141586;stroke-linecap:round;stroke-linejoin:miter;stroke-miterlimit:4;stroke-opacity:1;stroke-dasharray:none" d="M133.643 67.896a65.23 63.286 0 1 1-130.461 0 65.23 63.286 0 1 1 130.461 0z" transform="matrix(.91074 0 0 .93872 1.76 .32)"/></svg>
